<?xml version="1.0"?>
<svg xmlns="http://www.w3.org/2000/svg" viewBox="0 0 288.14 285.35">
  <defs>
    <style>.cls-1{fill:#de2027;}.cls-2{fill:#fff;}</style>
  </defs>
  <title>Supply_ChainAsset 16</title>
  <g id="Layer_2" data-name="Layer 2">
    <g id="Layer_1-2" data-name="Layer 1">
      <path class="cls-1" d="M6.22,139.22c0-3.18.15-6.32.36-9.45a156.62,156.62,0,0,1,4.74-24c.76-2.42,1.65-4.81,2.53-7.19a154,154,0,0,0-7.52,36.79l0,2.34c0,1.12,0,2.24,0,3.35C6.26,140.43,6.22,139.83,6.22,139.22Zm54.29-103-1.33,1.15c.52-.4,1.06-.78,1.56-1.19l2.57-2.11c.79-.55,1.53-1.08,2.19-1.61l-2.42,1.63Zm84.32-35,7.57.16c-2.69-.15-5.38-.26-8.1-.26-.51,0-1,0-1.53,0l.52,0Zm7.62.16h0ZM39.61,56.83,41,55.25c.38-.51.83-1.09,1.27-1.67l-1.38,1.64Zm30-27.1c1-.67,1.27-.89.64-.56-.18.09-.62.4-.94.61-1.2.8-2.35,1.58-3.19,2.27ZM155.34,1.62c1.76.21,3.55.52,5.33.73l.63.09c2.59.34,5.2.63,7.79,1Q162.33,2.18,155.34,1.62Zm-30.57,4.3a8.59,8.59,0,0,0-1.68,0C119.57,6.45,116,7,112.53,7.6l-10.34,2.73c-.48.13-1,.27-1.44.43s-.7.32-1,.48a12.21,12.21,0,0,0,1.4-.16l10.33-2.65,0-.13c3.94-.94,8-1.31,12-2A11.45,11.45,0,0,0,124.77,5.92Zm-1.14-3.23c-3.28.49-6.51,1.13-9.72,1.85,1.86-.27,3.79-.45,5.44-.87C120.77,3.32,122.2,3,123.63,2.69ZM59.09,32.47l-4.5,3.41a40.16,40.16,0,0,0-4.34,3.57l-2.14,2.07c.86-.68,1.77-1.33,2.59-2.07C53.27,37.09,56.24,35.19,59,33l0,0,3.61-2.7c1.23-.86,2.55-1.58,3.82-2.37.85-.53,1.73-1,2.54-1.58s1.38-1,2.07-1.58c-.86.45-1.77.87-2.59,1.37l-4.81,3C62,30.12,60.61,31.37,59.09,32.47Zm-40.26,47c-.8,1.51-1.46,3.09-2.2,4.63l-2.5,5.29A7.69,7.69,0,0,0,13,91.91l4.44-9.22,0,0a69.05,69.05,0,0,1,4.29-7.64,7,7,0,0,0,.44-1.18c-.28.39-.57.77-.81,1.18ZM139.67,1.17l-.86.07q1.38-.06,2.76-.06C140.92,1.17,140.27,1.16,139.67,1.17Zm-32.76,4c1.71-.35,3.47-.86,5.35-1.21L123,2.09a43.57,43.57,0,0,1,6.34-.78L135.75.8C140,.28,144.26.59,148.47.67c5.26-.05,10.42.82,15.65,1.42l3.62.43c1.19.21,2.37.49,3.56.73.48.1.94.12,1.42.19-.29-.09-.54-.2-.86-.27a72,72,0,0,0-9.79-1.68c-3.29-.35-6.56-1-9.88-1.11l-10-.33a33.14,33.14,0,0,0-5,.11l-5,.34c-6.89.16-13.71,1.88-20.44,2.83a41.29,41.29,0,0,0-4.46,1.32,3.64,3.64,0,0,0-1.1.51C106.18,5.25,106.45,5.3,106.91,5.19Zm74.6.3s.13,0,0-.09a7,7,0,0,0-.82-.2c-.72-.11-.73,0,0,.14C180.84,5.39,181.22,5.44,181.51,5.49Zm-46.87-4c-2.59.15-5.17.33-7.74.57q-1.64.3-3.27.66,6.63-1,13.44-1.36C136.26,1.38,135.45,1.43,134.64,1.46Zm8.13-.28-.34,0-.86,0h1.2Zm-5.48.14c.29,0,.59,0,.89,0l.63-.06ZM14.22,97.47c-.13.36-.24.72-.37,1.08.2-.53.37-1.07.57-1.6C14.36,97.12,14.28,97.29,14.22,97.47ZM45.31,48.64l4.16-4a3.58,3.58,0,0,1,.64-.51s0,0,0,0a137.94,137.94,0,0,1,18-14.05A127.38,127.38,0,0,1,95.3,16.28a11.76,11.76,0,0,1,1.76-.84c1.47-.64,2.35-1.15,2.24-1.31a9.87,9.87,0,0,0-3.09.91l-7.65,3a52.35,52.35,0,0,0-6.64,3.15L75.38,24.6C71.08,27,67.12,29.9,63,32.52c-3.15,2.32-6.12,4.89-9.2,7.32-.75.63-1.54,1.22-2.27,1.87L49.4,43.78l-4.19,4.14c-1.16,1.19-2.41,2.31-3.51,3.57l-3.18,3.87-3.19,3.86a33.54,33.54,0,0,0-3,4l-5.46,8.06C25.09,74,23.7,76.93,22.1,79.75L19.79,84l-1.9,4.47c-.94,2.33-2,4.62-2.88,7A151.3,151.3,0,0,1,28.49,69.28,140,140,0,0,1,41,53.31L42,52C43,50.8,44.23,49.77,45.31,48.64ZM128.54,8.42l9.3-.76,2.28-.21h2.3c1.26,0,2.75-.15,2.18-.21s-1.12-.13-1.71-.15a60.23,60.23,0,0,0-8.17.35l-8.14.65-8,1.52a59.66,59.66,0,0,0-7.94,1.81c-1.39.43-2.62.83-3.71,1.19a141.76,141.76,0,0,1,16.34-3.37A38,38,0,0,1,128.54,8.42ZM17.84,83.78c.2-.37.65-1.19,1.49-2.59,1.08-2.54,2.8-5.72,4.42-8.64,2.26-3.76,4.73-7.17,7-10.73,1.56-2.64,3.72-4.88,5.6-7.35a73.52,73.52,0,0,1,6.14-7.07l3.32-3.33c.89-.9,1.66-2,1.15-1.68s-1.28.88-1.95,1.35l4-4.24c1.48-1.42,3.11-2.7,4.69-4.06a94.4,94.4,0,0,1,9.9-7.7A105.51,105.51,0,0,1,77,19.51c1-.55,2.06-1.15,2.93-1.68a3.24,3.24,0,0,0,.93-.71,2.69,2.69,0,0,0-1.08.34c-.93.42-2.07.95-3,1.47l-2.47,1.32A138.58,138.58,0,0,0,17.84,83.78Zm1.52-2.63,0,0a.75.75,0,0,1-.06.13Zm-.11.21h0ZM14.8,91.76c-.35.75-.67,1.53-1,2.3q-2.18,6.31-3.76,12.88l2.35-7.51a34.19,34.19,0,0,1,1.94-5.53c1.92-4,3.29-7.9,5.14-11.74a14.87,14.87,0,0,1,2-3.16c.47-.37,1-1,2.2-3.35a45.14,45.14,0,0,1,2.15-4c2.41-3.4,4.71-6.83,7-10.26,2.52-3.25,5.16-6.41,7.78-9.6a32.45,32.45,0,0,1,2.12-2.5c.75-.82.75-1.23.07-.71s-1.14.91-1.79,1.5-1.22,1.34-1.85,2.1L33.41,59c-1.95,2.26-3.43,4.87-5.16,7.28-.89,1.31-1.83,2.69-2.61,3.93L19.27,81.33c-.77,1.54-1.48,3.22-2.16,5S15.58,89.92,14.8,91.76Zm4.45-10.39h0v0Zm0,0c0-.06.06-.13.09-.18l-.1.2Zm229-32.15a8.91,8.91,0,0,1,.7.6,14,14,0,0,1,1.54,1.76l1.05,1.35c1.48,1.63,2.9,3.31,4.3,5a138.77,138.77,0,0,0-17.2-19.43l-4.25-3.67-.94-.78c-.38-.29-.75-.58-1.15-.84l-7.15-5.08a41.62,41.62,0,0,0-5.13-3.27,129.77,129.77,0,0,1,16.36,12.53,3.89,3.89,0,0,1,.49.52,10.59,10.59,0,0,1-1.12-.76,107.71,107.71,0,0,0-10.39-8.05,147.37,147.37,0,0,0-17.85-10.95L202.71,16a64.39,64.39,0,0,0-7.88-3.15c-.46-.15-.92-.22-1.39-.33a8.33,8.33,0,0,0,1.4.89c11.62,5.43,23.2,11.06,33.48,18.82,4.75,3.1,8.89,7,13.22,10.61,2.63,2.35,5.13,4.84,7.56,7.4-.18-.22-.34-.45-.53-.67S248.23,49.14,248.29,49.18ZM156.37,8.24c.13,0,.25,0,.37.06l6.9.88a61.28,61.28,0,0,1,8.6,1.55c2.83.67,5.71,1.15,8.5,2,5.5,1.89,11.17,3.31,16.41,5.88C208,22.86,217.81,29.26,227.24,36c4.49,3.83,9.25,7.42,13.22,11.74A136.74,136.74,0,0,1,278.65,171c.31-1.32.65-2.63.92-4-.23,1.39-.58,2.77-.85,4.15l-2,9.11c-.57,1.68-1.11,3.38-1.64,5.08-.08.28-.17.57-.26.85A91.12,91.12,0,0,1,270.91,197q-.72,1.75-1.5,3.48a50.73,50.73,0,0,1-2.71,5.9l-1.15,2.11c-.71,1.35-1.44,2.68-2.19,4l-1.14,2.07a43.68,43.68,0,0,1-3.23,5.09q-1.26,2-2.6,3.85a54.93,54.93,0,0,1-4.75,6.4l-.47.57c-.92,1.15-1.85,2.28-2.81,3.39l-2.67,3.23c-.92,1-1.87,1.89-2.82,2.82q-1.76,1.83-3.59,3.6l-.18.18-.25.23a136.89,136.89,0,0,1-47.75,29.76c-.82.32-1.64.66-2.48,1l-2.71.78-1.87.59-1.89.72-2.65.7-10.65,2.71L158,281.83a42.3,42.3,0,0,1-5.82.65l-5.85.45-4.4.32c-1.47,0-2.93-.07-4.4-.1l-8.82-.25c-2.94-.16-5.84-.71-8.77-1a65.42,65.42,0,0,1-8.71-1.46c-3.81-1-7.68-1.8-11.45-2.91-2.13-.74-4.26-1.45-6.41-2.14l-2.86-1.16a3.39,3.39,0,0,0-.69-.2c-.4-.1-.2.09.69.48l0,0-2-.6a24.21,24.21,0,0,1-4.06-1.74c-4.14-2.3-8.53-4-12.5-6.46-4.06-2.3-8.27-4.37-12-7.21-2.78-2.05-5.84-3.73-8.39-6.05a77,77,0,0,1-7.43-7.25,40.58,40.58,0,0,0-4-4.26,62.75,62.75,0,0,1-6.81-6.83l-5.83-7.75a79.8,79.8,0,0,1-4.6-7.06c-1.44-2.41-3.07-4.72-4.39-7.19l-3.83-7.51-1.91-3.75-1.56-3.92-3.13-7.84c-.94-2.65-1.6-5.4-2.41-8.1-1.77-5.38-2.58-11-3.49-16.59-.19-1.24-.44-2.48-.59-3.72l-.27-3.77-.61-7.53A62,62,0,0,1,0,141.7c0-2.52.47-4.89.46-7.39a54.14,54.14,0,0,1,.67-8.26c.35-2.74.71-5.49,1.14-8.26.67-2.71,1.35-5.46,2-8.19s1.16-5.5,2.06-8.09a119,119,0,0,1,4.16-12.28c1.85-3.92,3.62-7.91,5.69-11.76A151.14,151.14,0,0,1,43.32,42.21l7.08-6.54L58,29.8c1.29-.95,2.5-2,3.86-2.89L66,24.32c2.74-1.68,5.36-3.6,8.19-5.13,12-6.91,25.48-11.41,39.08-14.56.22,0,.45-.06.67-.09A137.21,137.21,0,0,0,74.22,20.25l-2.08,1.12c-1.51.83-2.89,1.88-4.33,2.81C65,26.12,62.1,28,59.39,30c-3.62,3.11-7.41,6.09-11,9.3-3.34,3.46-6.86,6.75-10,10.35A142.69,142.69,0,0,0,14,89.16c-1.17,3-2.57,5.78-3,8.29a32.14,32.14,0,0,1-.9,3.16c-.92,2.78-1.91,5.61-2.62,8.5s-1.24,5.82-2,8.62a9.68,9.68,0,0,0-.23,1.62c.22.16,0,1.17-.28,3-.24,2.35-.49,4.71-.74,7.06a5.1,5.1,0,0,0,0,.69c.11-.76.22-1.49.33-2.25.35-2.39.5-4.79,1-7.14s1-4.67,1.45-7A100.35,100.35,0,0,1,10.7,99.93l1.35-4.29c.53-1.39,1.15-2.75,1.73-4.13,1.18-2.73,2.37-5.45,3.56-8.19,1-1.85,1.15-2,.68-.68-.36,1-.42,1.54-.29,1.33l.11-.19q-2.22,5-4,10.28c-1.34,3.31-2.35,6.79-3.33,10a104.32,104.32,0,0,0-2.9,12c-.41,2-.9,4-1.26,6.08l-.71,6.17L5,134.26a13.32,13.32,0,0,0-.12,2.35c0,.34,0,.65,0,1a9,9,0,0,0,.16-1c.13-3.16.68-6.29,1-9.43l.56-4.71c.23-1.57.64-3.1,1-4.65l2-9.27.48-1.54a138.29,138.29,0,0,0-3.47,22.83,140.15,140.15,0,0,0-1,15.74A148.63,148.63,0,0,0,12,187.31a138.28,138.28,0,0,0,13.79,28.78A137.47,137.47,0,0,0,63.24,256a32.78,32.78,0,0,0,3.49,2.57l2.86,1.52L72,261.7c2.92,1.75,6,3.3,8.94,4.95A75.53,75.53,0,0,0,90.16,271a74.33,74.33,0,0,0,9.54,3.64c3.13,1,6.32,1.95,9.53,2.79a136.35,136.35,0,0,1-36.49-15.64l-3.15-1.64L63.48,256a50.09,50.09,0,0,1-5.32-4.09L53,247.61A51.68,51.68,0,0,1,48.09,243l-4.77-4.74c-2.1-1.89-3.67-4.27-5.54-6.39s-3.7-4.29-5.26-6.65l-4.7-7.09c-.76-1.19-1.61-2.33-2.3-3.57l-2-3.76a148,148,0,0,1-10.36-23.49L11,180.05l-1.07-3.67-.71-3.75L7.63,164c-.53-2.89-.57-5.84-.89-8.75A103.45,103.45,0,0,1,6.26,141a141.72,141.72,0,0,0,.93,14.37c.07.83.11,1.67.19,2.5a139.85,139.85,0,0,0,13.94,47.91c2.56,4.79,4.95,9.7,8.17,14.11,1.53,2.24,3,4.56,4.57,6.74l5.2,6.24,1.47,1.8A135.43,135.43,0,0,0,50.86,245,136.56,136.56,0,0,1,9.8,170.31,138.18,138.18,0,0,1,7.19,155.4a137.38,137.38,0,0,1,6-52.93c1.67-6.25,4.57-12,7-18,3.16-5.62,5.86-11.51,9.64-16.74l3.3-4.85c1.8-2.54,4-4.81,5.92-7.25l1.9-2.3q4.35-4.8,9.13-9.18a3.32,3.32,0,0,1-.35.45A145.72,145.72,0,0,0,33.09,63.89c-1.82,2.76-3.59,5.46-5.36,8.17s-3,5.7-4.71,8.6c-.65,1.17-1.14,2.44-1.81,3.72l-1.37,2.77.07-.13c-.45,1-1,2.22-1.34,3l-2.63,7-.79,2.78A137.22,137.22,0,0,1,84.29,22.08,30.24,30.24,0,0,1,88.49,20l3.13-1.35c1-.44,2-.92,2.67-1.28s1.28-.76,1.15-.81-.46-.08-.14-.3q5.72-2.1,11.61-3.68c-2.48.84-4.07,1.51-4.19,2a1.52,1.52,0,0,1-.46.27,137.22,137.22,0,0,1,17.11-4.3l-.66.11c-1.4.22-2.72.34-3.95.47A38.31,38.31,0,0,1,119.4,10c1.29-.21,2.57-.49,3.85-.75A145.61,145.61,0,0,1,156.37,8.24ZM16.85,80.51a5.59,5.59,0,0,0,.8-1.06l2.46-4.35c1.1-2,2-3.82,3-5.44l3.06-4.6c6.16-9.91,13.94-18.47,22.38-26.69L54.93,33c.55-.48,1.14-1,1.44-1.34s.43-.56.3-.54a4.21,4.21,0,0,0-1.1.64c-1.22.94-2.56,2-3.75,3a91.52,91.52,0,0,0-9.13,8.7l-4.38,4.54-4,4.92-3,3.7a32.09,32.09,0,0,0-2.78,3.84c-1.74,2.65-3.53,5.32-5.48,8a15.68,15.68,0,0,0-2.32,4.42,19.64,19.64,0,0,1-1.45,2.83l-1.77,3C17.05,79.59,16.57,80.79,16.85,80.51Zm-4.08,9.93c.42-.86.84-1.72,1.14-2.31.44-1.08.75-1.82,1.05-2.53a3.42,3.42,0,0,0,.22-.74c0-.07-.17.2-.27.42-.31.66-.67,1.4-.93,2.06C13.57,88.39,13.18,89.4,12.77,90.44ZM6.11,111.75,6.6,110l.27-1.25a19.67,19.67,0,0,1,.56-2.2,20,20,0,0,0-.68,1.93l-.26,1.16C6.36,110.33,6.24,111,6.11,111.75ZM3.55,146.58c0-.43-.12-.9-.16-.74a13.36,13.36,0,0,0-.27,3.43c.09.87.34,1.67.38,1.15C3.52,149.45,3.57,148.05,3.55,146.58Zm2.89,18.33c0-.29,0-.56-.09-.88A20.57,20.57,0,0,1,6,161.19c-.11-1.21-.18-2-.25-2.69s-.17-1.26-.25-1.88c0,.67,0,1.34.08,2a44,44,0,0,0,.61,5.52C6.28,164.42,6.37,164.66,6.44,164.91Zm5.11,21.88c-.26-.95-.53-1.9-.85-3.07a5.62,5.62,0,0,0,.11.72l.58,2A2.68,2.68,0,0,0,11.55,186.79Zm8.65,20.6a6,6,0,0,0,.26.68c.32.57.64,1.12.95,1.69a4.13,4.13,0,0,0-.26-.66Zm7.36,15.83c-.89-1.51-1.73-3.05-2.72-4.57-1.84-2.56-3.06-5.49-4.58-8.24l-2.19-4.19a28.23,28.23,0,0,1-2-4.28,38.33,38.33,0,0,0-2.1-4.41l-.08-.22h0l-.15-.23.2.4h0l0,.07c.74,2,1.13,3.06,1.53,4.17a30.71,30.71,0,0,0,2.24,4.72c1.46,2.74,2.94,5.55,4.41,8.32a32.72,32.72,0,0,0,2.37,4l2.54,4a8.43,8.43,0,0,0,.56.71C27.7,223.54,27.65,223.37,27.56,223.22ZM31,225.57l.49.7-.37-.63Zm7.24,11-5.09-6.26a11.09,11.09,0,0,0-1.79-1.88c-.3-.18.43,1.07,1.29,2.16L34,232.29c1.78,2.16,2.81,3.46,3.72,4.51a8.78,8.78,0,0,0,1.41,1.28C39.54,238.36,39,237.51,38.28,236.59Zm20,19.18a4,4,0,0,0-.69-.81l-5.37-4.49-2.69-2.19-2.49-2.38c-.44-.43-.83-.71-1.24-1.05l-.18-.18h0l-.3-.22.4.34h0l.08.06c1.31,1.33,2.55,2.72,3.91,4l4.45,3.78c1.13,1,2.36,1.89,3.53,2.8A2.17,2.17,0,0,0,58.3,255.77Zm18,11.59a3.49,3.49,0,0,0-.61-.42c-.58-.36-1.21-.73-2.35-1.41a54.06,54.06,0,0,1-6.17-3.69,3.76,3.76,0,0,0-.7-.37c-.09,0,0,.08.14.2,1.39,1.07,2.81,2.14,4.29,3.14s3.15,1.69,4.79,2.43C76.11,267.42,76.24,267.38,76.34,267.36Zm95.73,11.75,2.65-.48a33.24,33.24,0,0,0,3.77-1Q175.31,278.46,172.07,279.11Zm-15.45,2.26c1.29-.1,2.58-.16,3.86-.29,2.77-.23,5.49-.86,8.22-1.36Q162.75,280.8,156.62,281.37Zm-5.66.4q-3.32.17-6.67.17A137.56,137.56,0,0,1,117,279.2c2.89.61,5.78,1.17,8.69,1.64,1.08.15,2.33.29,3.46.4A131.75,131.75,0,0,0,151,281.77ZM167.58,6.53l2.62.37,2.56.61,5.13,1.25c.48.12,1,.23,1.44.3a5.81,5.81,0,0,0,.83,0,11.05,11.05,0,0,0-1.28-.52l-8.09-2.08-9.71-1.38-4.51-.61a14.61,14.61,0,0,0-2.28.1c1,.14,1.91.3,2.85.48ZM272,88.61c-2.6-4.83-4.82-9.83-8-14.32-11-17.7-25.8-33.2-43.2-44.2a164.82,164.82,0,0,0-15.13-8.37l2.59,1.44,7.4,4.11c2.38,1.51,4.67,3.17,7,4.75l3.86,2.64c1.26.9,2.41,2,3.61,3,3.07,2.66,5.91,4.75,8.14,6.36.82.62,2.43,2.11,3.74,3.36,2,2,4.22,3.84,6.1,6l5.61,6.76a72.33,72.33,0,0,1,5.73,8.15c1.75,2.82,3.81,5.46,5.2,8.5l.25.47c-.08-.15-.22-.36-.1,0a6.15,6.15,0,0,1-.69-1,25.82,25.82,0,0,0-1.7-3L256.94,65l-1.38-2L254,61.14l-3.13-3.56c-1.67-1.75-3.28-4-5.17-5.71-.19-.18-.47-.37-.44-.31a6.37,6.37,0,0,0,.53.65c2.77,3.17,5.22,6.61,7.92,9.87a144,144,0,0,1,20.84,40.16l1.3,4.48,1.28,4.48a28.39,28.39,0,0,1,1.07,4.53l1.66,9.17.41,2.29.19,2.32.37,4.65a73.94,73.94,0,0,1,.48,9.29l-.17,9.32c-.11,3.1-.65,6.17-.95,9.26l-.53,4.58a138.6,138.6,0,0,0-3.26-67.68l-1.12-2.81A63.55,63.55,0,0,0,272,88.61Zm-71.29-69.2.77.33c-1-.47-2.09-.92-3.14-1.37Zm79,147.25v0l-.06.36ZM260.18,61.22c1.3,2,2.57,4,3.78,6s3.11,4.57,4.38,7.35l2.72,5a2.11,2.11,0,0,0,.39.56,3.19,3.19,0,0,0-.26-.7c-1.38-2.66-2.68-5.37-4.14-8l-4.86-7.57-.68-1.06-2.9-3.65C259.15,59.82,259.71,60.49,260.18,61.22ZM251.71,51l-6.08-6.36c-2-2.12-4.37-3.9-6.54-5.86-.33-.28-.66-.56-1-.85l.57.55.2.17c3.46,3,6.41,6.48,9.62,9.7s5.76,7.07,8.77,10.6a36.06,36.06,0,0,1,3.17,4.37l2.95,4.5,2.88,4.5.15.31c.81,1.3,1.56,2.63,2.33,4-.51-1.06-1.07-2.17-1.66-3.3-1.57-2.8-3.47-5.41-5.19-8.12l-2.65-4c-.9-1.33-2-2.52-3-3.79-1.2-1.49-1.68-2.23-1-1.73.13.1-.35-.62-.45-.85-.23-.5-.21-.48.9.85.52.66,1.07,1.3,1.61,1.94l-2.65-3.33C253.79,53.08,252.7,52.08,251.71,51ZM98.18,277.5c5.1,1.61,10.14,3.45,15.43,4.37l7.85,1.69,8,.94h0l4.72.54c1.57.16,3.17.09,4.75.15l9.5.15,9.48-.77,4.74-.41,4.67-.87c1.09-.2,1.46-.33,1-.32a5.92,5.92,0,0,0-.75,0l-5.05.74-5.19.34c-3.48.16-7,.73-10.59.71s-7.11,0-10.54-.11c-4.32-.3-8.61-1-12.92-1.46s-8.49-1.75-12.72-2.61a37,37,0,0,1-5.16-1.41l-5-1.56-5-1.52-2-.81c-.93-.3-1.88-.58-2.82-.86A54.65,54.65,0,0,0,98.18,277.5Zm104-5.07a9.48,9.48,0,0,0-1,.35c-5.45,2.14-10.78,4.71-16.53,6.05-1.32.38-2.67.88-4,1.33a26.27,26.27,0,0,0,3.64-.78c6.2-1.41,11.94-4.16,17.8-6.5a4,4,0,0,0,1.11-.64C203.22,272.16,202.62,272.32,202.19,272.43Zm-21.72,7.79.18-.06h-.05ZM275.32,89l-.25-.75-.1,0ZM178.49,280.74l1.56-.43c-.44.09-.88.17-1.36.3C177.18,281,177.12,281.05,178.49,280.74Zm2.11-.57-.55.14.41-.09h0ZM288.09,141.76a29.5,29.5,0,0,1-.54,4c-.17,1-1.08,1.13-1.35.15-.47-1.66-1-3.31-1.32-5.13a28.4,28.4,0,0,1-.44-4.53l-.12-4.16c-.15-1.37-.36-2.74-.55-4.11l-1.25-8.2c-.3-2.75-1.29-5.36-1.94-8l-2.26-7.94-1.93-4.85a136.93,136.93,0,0,0-11.56-27.06l.65,1c.39.68.47.76.2.14a16,16,0,0,0-.9-1.59L263,68.72c-2.21-3.72-4.6-7.33-7.14-10.81a139.59,139.59,0,0,1,10.54,14.72c.76,1.47,1.47,3,2.18,4.41.28.6.72,1.38,1.09,2a5.89,5.89,0,0,0,.5.8c.06.06-.07-.29-.18-.54-.37-.87-.8-1.8-1.26-2.76a144.26,144.26,0,0,1,8.85,18.1l3.29,8.38,2.52,8.63c1.95,5.7,2.69,11.67,3.9,17.57a38.11,38.11,0,0,1,.71,6.26A58.92,58.92,0,0,1,288.09,141.76ZM275.26,91.05c-.18-.52-.35-1-.53-1.57,0-.07-.29-.57-.29-.5s.13.63.2,1Zm9.57,40.45c0-.63-.05-1.27-.07-1.88l-.15-.79c0,.64.05,1.26.08,1.91A6.2,6.2,0,0,0,284.83,131.5Zm.09-6.92a10.83,10.83,0,0,0-.19-1.09c-.22-.85-.43-1.64-.64-2.46l-.08-.38h0l-.72-2.47h0l0-.05-.9-5c-.37-1.73-.94-3.41-1.4-5.12-1-3.39-1.88-6.82-3-10.17-.11-.27-.26-.53-.4-.8.15.5.23,1,.44,1.5.8,2.81,1.6,5.64,2.41,8.47a57.5,57.5,0,0,1,2,8.53,8,8,0,0,0,.82,2.61l0,.19h0l.72,2.47c0,.08.05.16.07.23l.58,3.06C284.91,125.27,285,125.48,284.92,124.58ZM286,136c0-.3,0-.65-.05-.91-.11-1.11-.17-1.16-.13-.12,0,.24.05.68.09.93S286,135.93,286,136ZM257.44,57.67l1.17,1.47c-.42-.52-.82-1.07-1.26-1.58ZM210.08,17.79a137.24,137.24,0,0,0-41-14.39c.95.13,1.91.23,2.86.39L182.62,6l2.68.58,2.6.82,5.22,1.66c2.45.87,5.15,1.27,7.38,2.52,9.57,4.75,19,9.18,27.74,14.88.43.28.89.56,1.31.87,14,10.43,27.07,22.2,37.06,36.92,5.81,8.95,11.44,18.1,15.5,28.09,1,2.43,1.86,5,2.66,7.47a3.2,3.2,0,0,1,0,2c-.19.21-.75-.2-1.16-.77a22.24,22.24,0,0,1-2.1-3.58c-1.41-3.07-2.7-6.19-4.21-9.2l-4.9-8.87a67.33,67.33,0,0,0-4.6-7.53l-4.86-7.36-1.42-1.79-1.76-2.73L257,56.53l-5.59-7.06a35.6,35.6,0,0,0-5.31-5.08c-.36-.25-1.59-1.44-2.36-2.21a96.93,96.93,0,0,0-8-7.28L231.15,31c-1.55-1.28-3.28-2.33-4.92-3.51-3.38-2.21-6.55-4.76-10.1-6.6C214.09,19.71,211.87,18.58,210.08,17.79Zm19.18,11.33A22.14,22.14,0,0,1,231,30.54L233,32.21c.41.32.72.49,1.07.72l-.63-.61-.83-.72-.85-.72A20.91,20.91,0,0,0,229.26,29.12Zm-25.07-15a2.57,2.57,0,0,0-.55-.35,78.83,78.83,0,0,0-10.85-4.64l-1-.27c.43.18.79.37,1.3.55,3,1,5.76,2.54,9,3.95l.69.29C203.31,13.85,203.79,14,204.19,14.12Zm-2.74,5.62q2.12,1,4.22,2l-1.11-.62Zm-19.62-7.4c-3.7-1.23-7.57-1.81-11.35-2.74A77.34,77.34,0,0,0,160.08,8a45.78,45.78,0,0,0-7.47-.48c-.77.06-.8.14.09.21,1.2,0,2.39.37,3.67.55.38,0,.75,0,1.13.08,1.48.2,3,.43,4.45.57a122.66,122.66,0,0,1,36.36,9.48L192.92,16C189.25,14.72,185.53,13.57,181.83,12.34Zm36.09,11.28,2.14,1.22c-1.16-.77-2.33-1.54-3.52-2.28l-8.76-5c-2.89-1.6-5.95-2.82-8.91-4.25-1.76-.78-3.54-1.76-5.28-2.34-3.58-1.1-6.94-2.23-10.27-3.38a36.72,36.72,0,0,0-5-1.45l-5.13-1.24a9.45,9.45,0,0,1-1-.26c-.33-.7-5.08-1.53-8-1.81l-2.91-.4-.18,0c-1.8-.2-3.6-.53-5.42-.63l-5.48-.22-6.93-.36-.9,0c-1.4,0-2.81,0-4.21.11l-2.89.23-3.4.38c-.75.09-1.27.38-.66.39,1.21,0,2.34.07,3.74,0,2-.07,4.06-.31,6.08-.21l6,.29,6.12.28c2.06.14,4.14.52,6.28.75,7.58.65,14.92,2.55,22.24,4.37a137.92,137.92,0,0,1,25.81,10.35l2.95,1.3Zm-7.84-5.83,0,0c-.5-.22-.88-.32-.91-.25s.32.35.74.64,1.19.76,1.83,1.12l6,3.38c2,1.12,3.78,2.57,5.67,3.84s3.74,2.63,5.63,3.94c1.55,1.09,3,2.36,4.46,3.59.74.55,1.45,1.15,2.15,1.75A137.79,137.79,0,0,0,210.08,17.79Zm48,43.32-6.46-8.22c-.81-.9-1.64-1.78-2.48-2.65,1.76,2.07,3.36,4.31,5.11,6.47a76.21,76.21,0,0,1,5.56,7.5l5.06,7.66c-.59-1.06-1.19-2.11-1.81-3.15Zm25.25,57.07h0v.14h0Zm.72,2.47v0ZM13.89,197.3l0,.16h0l0-.15Zm31.75,47.37h0l.1.11h0l-.1-.12Z"/>
      <path class="cls-2" d="M71.28,122.36c9.28,0,15.52-5.78,15.52-14.38V81.79a.94.94,0,0,0-.93-.94H80.42a.94.94,0,0,0-.93.94v25.79c0,4.86-3,7.64-8.21,7.64s-8.21-2.78-8.21-7.64V81.79a.94.94,0,0,0-.93-.94H56.69a.94.94,0,0,0-.93.94V108C55.76,116.58,62,122.36,71.28,122.36Z"/>
      <path class="cls-2" d="M94.14,121.62h5.49a1,1,0,0,0,1-1V107.18a.15.15,0,0,1,.15-.14h6.93a.22.22,0,0,1,.18.1l8.15,14a.87.87,0,0,0,.76.45h5.89a1,1,0,0,0,.82-1.44l-8.36-14.31a13.14,13.14,0,0,0,6.85-7,12.76,12.76,0,0,0-.2-10,13.6,13.6,0,0,0-12.56-8h-15a1,1,0,0,0-1,1v39A.85.85,0,0,0,94.14,121.62Zm6.47-21.42V88a.22.22,0,0,1,.22-.21h8.85a6.07,6.07,0,0,1,5.92,6.32,6.14,6.14,0,0,1-5.92,6.32h-8.86A.21.21,0,0,1,100.61,100.2Z"/>
      <path class="cls-2" d="M129.3,121.62h16.77a12,12,0,0,0,12.18-11.7,10.59,10.59,0,0,0-5.31-9.48,10.2,10.2,0,0,0,3.76-8.12c0-6.43-5.31-11.47-12.09-11.47H129.28a.93.93,0,0,0-.93.93v38.89A1,1,0,0,0,129.3,121.62Zm15.31-24.07h-8.74a.21.21,0,0,1-.21-.21V88a.22.22,0,0,1,.22-.21h8.73a4.89,4.89,0,0,1,0,9.78Zm6.32,11.92a5.09,5.09,0,0,1-5.06,5.23h-10a.22.22,0,0,1-.22-.22V104.41a.18.18,0,0,1,.18-.18h10A5.09,5.09,0,0,1,150.93,109.47Z"/>
      <path class="cls-2" d="M160.7,121.62h5.91a1,1,0,0,0,.9-.64l2.53-7.29a.2.2,0,0,1,.19-.14h16.22a.22.22,0,0,1,.2.14l2.53,7.29a1,1,0,0,0,.89.64h5.87a.93.93,0,0,0,.77-.41.94.94,0,0,0,.12-.86L182.78,81.48a1,1,0,0,0-.89-.63H174.8a1,1,0,0,0-.89.63l-14.1,38.87a.94.94,0,0,0,.89,1.27Zm11.91-15.25,5.54-15.76a.2.2,0,0,1,.19-.14.21.21,0,0,1,.2.14l5.53,15.76a.19.19,0,0,1,0,.19.21.21,0,0,1-.17.08H172.81a.21.21,0,0,1-.17-.08A.22.22,0,0,1,172.61,106.37Z"/>
      <path class="cls-2" d="M201.61,121.62h5.44a.94.94,0,0,0,.94-.94V95.9a.19.19,0,0,1,.13-.19.21.21,0,0,1,.23.08L226,121.21a.91.91,0,0,0,.76.41h4.29a.94.94,0,0,0,.93-.94V81.79a.94.94,0,0,0-.93-.94h-5.45a.94.94,0,0,0-.93.94v24.78a.19.19,0,0,1-.14.19.18.18,0,0,1-.22-.07L206.66,81.26a.94.94,0,0,0-.77-.41h-4.28a1,1,0,0,0-.94.94v38.89A.94.94,0,0,0,201.61,121.62Z"/>
      <path class="cls-2" d="M80.75,163.12h0a.85.85,0,0,0,.1-.68.89.89,0,0,0-.42-.55l-4.81-2.74a.87.87,0,0,0-1.2.33,12.52,12.52,0,0,1-10.93,5.83c-8.23,0-14-5.75-14-14s5.75-14,14-14a12.46,12.46,0,0,1,10.93,5.83.85.85,0,0,0,1.19.32l4.82-2.79a.89.89,0,0,0,.42-.56.87.87,0,0,0-.1-.67,20.26,20.26,0,0,0-17.26-9.27c-12.14,0-21.29,9.08-21.29,21.12s9.15,21.13,21.29,21.13A20.16,20.16,0,0,0,80.75,163.12Z"/>
      <path class="cls-2" d="M138.46,138h15.81a.9.9,0,0,0,.9-.9v-5.23a.9.9,0,0,0-.9-.9H131.88a.89.89,0,0,0-.89.9v39a.89.89,0,0,0,.89.89h5.52a.89.89,0,0,0,.9-.89V155.63a.16.16,0,0,1,.16-.16H153.7a.9.9,0,0,0,.9-.9v-5.23a.9.9,0,0,0-.9-.9H138.46a.16.16,0,0,1-.16-.16V138.13A.16.16,0,0,1,138.46,138Z"/>
      <path class="cls-2" d="M168.06,138h15.85a.87.87,0,0,0,.87-.88v-5.27a.88.88,0,0,0-.87-.88H161.48a.89.89,0,0,0-.88.88v39a.88.88,0,0,0,.88.87H167a.88.88,0,0,0,.88-.87V155.6a.13.13,0,0,1,.14-.13h15.28a.88.88,0,0,0,.87-.88v-5.27a.87.87,0,0,0-.87-.88H168.06a.14.14,0,0,1-.14-.14V138.11A.14.14,0,0,1,168.06,138Z"/>
      <path class="cls-2" d="M214.32,164.68H197.74a.21.21,0,0,1-.21-.21v-9.66a.2.2,0,0,1,.21-.2H212.6a.94.94,0,0,0,.94-.94v-5.09a.94.94,0,0,0-.94-.94H197.74a.21.21,0,0,1-.21-.21v-9.26a.2.2,0,0,1,.21-.2H214A.94.94,0,0,0,215,137v-5.15a.94.94,0,0,0-.94-.94H191.16a.94.94,0,0,0-.94.94v38.88a.94.94,0,0,0,.94.94h23.16a.94.94,0,0,0,.94-.94v-5.14A.94.94,0,0,0,214.32,164.68Z"/>
      <path class="cls-2" d="M244.64,164.68H228a.19.19,0,0,1-.18-.19V154.8a.18.18,0,0,1,.18-.19h14.9a.93.93,0,0,0,.93-.93v-5.12a.93.93,0,0,0-.93-.92H228a.19.19,0,0,1-.18-.19v-9.29A.18.18,0,0,1,228,138h16.33a.93.93,0,0,0,.93-.92v-5.18a.93.93,0,0,0-.93-.93h-22.9a.93.93,0,0,0-.93.93v38.91a.93.93,0,0,0,.93.92h23.19a.92.92,0,0,0,.92-.92V165.6A.92.92,0,0,0,244.64,164.68Z"/>
      <path class="cls-2" d="M113.2,212l-4.75-2.71a.92.92,0,0,0-1.25.34,12.51,12.51,0,0,1-10.91,5.8c-8.23,0-14-5.75-14-14s5.75-14,14-14a12.46,12.46,0,0,1,10.91,5.81.91.91,0,0,0,1.24.33l4.76-2.76a.9.9,0,0,0,.44-.58.91.91,0,0,0-.11-.7,20.28,20.28,0,0,0-17.24-9.24c-12.14,0-21.29,9.08-21.29,21.13s9.15,21.12,21.29,21.12a20.14,20.14,0,0,0,17.24-9.3.9.9,0,0,0-.33-1.27Z"/>
      <path class="cls-2" d="M141.28,214.76H126a.16.16,0,0,1-.16-.15V181.92A.89.89,0,0,0,125,181h-5.53a.89.89,0,0,0-.89.89v39a.89.89,0,0,0,.89.89h21.82a.89.89,0,0,0,.89-.89v-5.25A.89.89,0,0,0,141.28,214.76Z"/>
      <path class="cls-2" d="M175.44,181H170a.93.93,0,0,0-.93.93v25.79c0,4.86-3,7.64-8.21,7.64s-8.2-2.78-8.2-7.64V182a.93.93,0,0,0-.93-.93h-5.46a.93.93,0,0,0-.93.93v26.19c0,8.6,6.24,14.38,15.52,14.38s15.53-5.78,15.53-14.38V182A.93.93,0,0,0,175.44,181Z"/>
      <path class="cls-2" d="M207.46,200.61a10.2,10.2,0,0,0,3.76-8.12c0-6.43-5.31-11.46-12.09-11.46H183.77a.9.9,0,0,0-.9.9v38.91a1,1,0,0,0,.94.95h16.72a12.45,12.45,0,0,0,9-3.89,11.49,11.49,0,0,0,3.19-8.63A10.43,10.43,0,0,0,207.46,200.61Zm-8.33-2.89h-8.75a.2.2,0,0,1-.2-.19v-9.36a.23.23,0,0,1,.23-.23h8.72a4.89,4.89,0,0,1,0,9.78Zm-8.95,6.79a.09.09,0,0,1,.1-.1h10.11a5.24,5.24,0,0,1,0,10.47h-10a.2.2,0,0,1-.19-.2Z"/>
      <path class="cls-2" d="M125.73,151.32a20.85,20.85,0,0,0-17.35-20.78.79.79,0,0,0-.91.78V137a.77.77,0,0,0,.6.74,14.07,14.07,0,0,1,0,27.14.79.79,0,0,0-.6.75v5.69a.78.78,0,0,0,.91.77A20.84,20.84,0,0,0,125.73,151.32Z"/>
      <path class="cls-2" d="M90.79,151.32a13.57,13.57,0,0,1,10.32-13.56.8.8,0,0,0,.62-.78v-5.63a.81.81,0,0,0-.93-.8,21.12,21.12,0,0,0,0,41.55.81.81,0,0,0,.93-.8v-5.64a.8.8,0,0,0-.62-.77A13.59,13.59,0,0,1,90.79,151.32Z"/>
    </g>
  </g>
</svg>
